HIERARCHY
ROOT pelvis
{
  OFFSET 0 100 0
  CHANNELS 6 Xposition Yposition Zposition Zrotation Xrotation Yrotation
  JOINT pelvis_right_femur
  {
    OFFSET -10.78128 -3.44521 -0.5502486
    CHANNELS 3 Zrotation Xrotation Yrotation
    JOINT right_femur_tibia
    {
      OFFSET -0.8047443 -44.0398 -0.1307829
      CHANNELS 3 Zrotation Xrotation Yrotation
      JOINT right_tibia_foot
      {
        OFFSET 3.006224 -47.83518 -5
        CHANNELS 3 Zrotation Xrotation Yrotation
        End Site
        {
          OFFSET 0 -5 15
        }
      }
    }
  }
  JOINT pelvis_left_femur
  {
    OFFSET 10.78128 -3.44521 -0.5502486
    CHANNELS 3 Zrotation Xrotation Yrotation
    JOINT left_femur_tibia
    {
      OFFSET 0.8047443 -44.0398 -0.1307829
      CHANNELS 3 Zrotation Xrotation Yrotation
      JOINT left_tibia_foot
      {
        OFFSET -4.370144 -48.10324 -4.275266
        CHANNELS 3 Zrotation Xrotation Yrotation
        End Site
        {
          OFFSET 0 -5 15
        }
      }
    }
  }
  JOINT pelvis_spine1
  {
    OFFSET 0 6.468898 -3.129235
    CHANNELS 3 Zrotation Xrotation Yrotation
    JOINT spine1
    {
      OFFSET 0 23.15396 4.99043
      CHANNELS 3 Zrotation Xrotation Yrotation
      JOINT spine2
      {
        OFFSET 0 20.79997 -5.064912
        CHANNELS 3 Zrotation Xrotation Yrotation
        JOINT neck
        {
          OFFSET 0 14.38658 9.616178
          CHANNELS 3 Zrotation Xrotation Yrotation
          End Site
          {
            OFFSET 0 20 0
          }
        }
      }
      JOINT right_manubrium
      {
        OFFSET -5.722621 16.35077 3.967754
        CHANNELS 3 Zrotation Xrotation Yrotation
        JOINT right_clavicle
        {
          OFFSET -13.16364 1.694482 -4.693211
          CHANNELS 3 Zrotation Xrotation Yrotation
          JOINT right_humerus
          {
            OFFSET -28.5034 -0.3100689 -2.792744
            CHANNELS 3 Zrotation Xrotation Yrotation
            JOINT right_radius
            {
              OFFSET -25.15693 0.02248979 -1.271978
              CHANNELS 3 Zrotation Xrotation Yrotation
              End Site
              {
                OFFSET -15 0 0
              }
            }
          }
        }
      }
      JOINT left_manubrium
      {
        OFFSET 5.722621 16.35077 3.967754
        CHANNELS 3 Zrotation Xrotation Yrotation
        JOINT left_clavicle
        {
          OFFSET 13.16364 1.694482 -4.693211
          CHANNELS 3 Zrotation Xrotation Yrotation
          JOINT left_humerus
          {
            OFFSET 29.39168 -1.063119 -2.237045
            CHANNELS 3 Zrotation Xrotation Yrotation
            JOINT left_radius
            {
              OFFSET 24.59957 -0.9528479 0.9047498
              CHANNELS 3 Zrotation Xrotation Yrotation
              End Site
              {
                OFFSET 15 -0 -0
              }
            }
          }
        }
      }
    }
  }
}
MOTION
Frames: 10
Frame Time: 0.0416666666667
0 103.5113 0 0.7124204 -1.438209 0.1215979 3.666594 -15.39344 8.394287 4.564511e-09 36.53917 -4.393033e-09 -6.665183 -18.31214 -3.17696 -6.742955 5.434132 -22.42289 -3.26731e-09 5.969016 3.371287e-09 6.82064 -17.99071 25.79137 -3.552484 -2.238238 4.71903 2.240434 8.838406 -7.104139 1.29195 22.69711 6.838868 3.214913 -23.96196 9.089915 5.889397 -20.44424 11.58228 84.41812 35.3456 -16.76973 1.32751e-09 1.157045e-09 17.95544 -7.220958 7.853325 4.935147 5.059819 -18.70994 -2.036991 -95.81148 30.26885 24.29413 -5.731596e-10 4.650203e-10 -14.63096 3.421211 17.68629 9.987508
0.3400361 103.4249 0.9873724 0.6826489 -1.366428 0.3301367 3.684148 -17.05113 8.638194 4.191986e-09 38.86391 -4.192809e-09 -6.277927 -17.10673 -3.523025 -6.783026 7.396995 -22.59878 -3.048512e-09 5.768052 2.815845e-09 6.743344 -18.35428 25.39365 -3.575726 -2.355687 4.509445 2.291806 8.934237 -7.36132 1.28452 22.52214 6.933692 3.195301 -24.03358 9.213797 6.070513 -20.23144 11.56933 85.09663 35.36141 -17.61838 1.215187e-09 1.277293e-09 17.65189 -7.175062 8.144976 4.803576 4.976471 -18.77839 -2.164604 -95.59434 30.32327 24.03293 -4.529632e-10 4.717555e-10 -14.94781 3.218802 17.42679 10.33592
0.6770594 103.4263 2.148059 0.585456 -1.06116 0.6168817 3.811451 -18.92822 8.657832 3.582472e-09 39.55182 -3.687349e-09 -6.129695 -15.86184 -3.714234 -6.714816 9.23659 -22.56798 -2.686088e-09 5.554048 2.254224e-09 6.587976 -18.69648 24.75604 -3.535571 -2.452274 4.279629 2.396995 8.983883 -7.648887 1.247242 22.29491 7.041371 3.223352 -24.21869 9.279715 6.187843 -19.99356 11.5442 85.76573 35.45483 -18.53612 1.095026e-09 1.264601e-09 17.1597 -7.194935 8.432575 4.760458 4.984216 -18.9794 -2.268768 -95.20179 30.25049 23.56732 -3.283355e-10 4.308923e-10 -15.57688 3.227663 17.16246 10.44681
0.9974358 103.4473 3.577409 0.4202936 -0.5074555 0.9584468 4.023515 -20.98491 8.426509 2.762545e-09 38.46635 -2.893533e-09 -6.214314 -14.5687 -3.725771 -6.551872 10.86691 -22.2933 -2.165951e-09 5.334708 1.699121e-09 6.323898 -19.02168 23.86849 -3.437645 -2.509888 4.037061 2.552432 8.976045 -7.959011 1.180253 22.03564 7.173384 3.309994 -24.52404 9.291455 6.243932 -19.72298 11.5091 86.47831 35.66266 -19.52137 9.609544e-10 1.095762e-09 16.4688 -7.345212 8.733864 4.85398 5.098282 -19.31825 -2.336994 -94.67931 30.04012 22.87244 -2.061747e-10 3.367876e-10 -16.56777 3.446941 16.86616 10.33755
1.282525 103.4018 5.301497 0.2317864 0.1837989 1.32278 4.275134 -23.10468 7.972702 2.037071e-09 35.66604 -2.106661e-09 -6.486606 -13.44736 -3.581324 -6.343617 12.18843 -21.80344 -1.638195e-09 5.210602 1.311914e-09 6.034817 -19.35645 22.88227 -3.314346 -2.513262 3.809243 2.738642 8.918464 -8.265959 1.087412 21.78407 7.314317 3.437948 -24.86325 9.241946 6.229211 -19.40933 11.46749 87.12168 35.94443 -20.51655 8.322702e-10 8.210405e-10 15.59091 -7.58427 8.995923 5.017056 5.3241 -19.78968 -2.377528 -93.93195 29.73504 21.85637 -1.297337e-10 2.246562e-10 -17.94563 3.87121 16.5808 9.974921
1.525854 103.2425 7.371006 -0.004320555 1.004712 1.687078 4.551328 -25.09911 7.365959 1.331741e-09 31.68867 -1.278365e-09 -6.921449 -12.38605 -3.294482 -6.087459 13.16529 -21.13591 -1.034081e-09 5.257311 9.653711e-10 5.640322 -19.59049 21.75123 -3.148724 -2.475248 3.594782 2.942528 8.807299 -8.546031 0.9833678 21.51752 7.453534 3.598045 -25.24679 9.14481 6.169699 -19.0675 11.41124 87.65023 36.29877 -21.42433 6.986097e-10 4.427471e-10 14.61222 -7.895617 9.236197 5.270901 5.601791 -20.29508 -2.372235 -93.08935 29.34511 20.72899 -6.7591e-11 7.893803e-11 -19.44748 4.401604 16.26602 9.492255
1.728659 102.9557 9.859793 -0.307897 1.884938 2.041525 4.871966 -26.89707 6.726921 5.557836e-10 27.18379 -3.57352e-10 -7.426821 -11.32636 -2.96578 -5.762593 13.94078 -20.34975 -2.913608e-10 5.626196 5.191667e-10 5.043257 -19.64248 20.44121 -2.918202 -2.41175 3.379025 3.152846 8.647506 -8.78997 0.8985238 21.22701 7.561836 3.755143 -25.64314 9.02714 6.07579 -18.69581 11.32846 88.11419 36.64303 -22.22244 5.660036e-10 -8.55618e-12 13.61995 -8.233134 9.494536 5.585669 5.869232 -20.7436 -2.324694 -92.28103 28.89739 19.64983 2.808841e-11 -1.193028e-10 -20.83043 4.917884 15.88935 9.032479
1.897981 102.5648 12.81766 -0.6488699 2.650739 2.382523 5.229904 -28.33259 6.21453 -2.630524e-10 23.11054 5.849203e-10 -7.860262 -10.32818 -2.735317 -5.398289 14.6179 -19.56892 5.363276e-10 6.56046 -5.899903e-11 4.225905 -19.47098 19.07806 -2.637422 -2.32658 3.165852 3.338944 8.459543 -8.969367 0.8687724 20.96734 7.611057 3.86889 -25.97216 8.9291 5.967478 -18.29257 11.22004 88.58562 36.87697 -22.87671 4.602552e-10 -4.617248e-10 12.72125 -8.533726 9.775614 5.890088 6.062527 -21.04 -2.250024 -91.6746 28.48252 18.75179 1.749302e-10 -3.592816e-10 -21.84191 5.289322 15.47041 8.738395
2.056806 102.1821 16.30845 -1.047807 3.2715 2.718254 5.665954 -29.16518 5.961643 -1.282937e-09 20.36907 1.63524e-09 -8.219837 -9.172947 -2.621339 -5.006261 15.17397 -18.86289 1.497485e-09 8.503498 -9.482904e-10 3.147971 -18.86705 17.62096 -2.281159 -2.255725 2.966785 3.489155 8.285176 -9.071455 0.899571 20.6962 7.592468 3.937192 -26.2666 8.854617 5.905774 -17.88255 11.09839 88.9891 37.00855 -23.32011 3.631997e-10 -8.779769e-10 11.99205 -8.73075 10.09614 6.158968 6.073843 -21.08634 -2.155325 -91.38206 28.13586 18.32877 4.025139e-10 -6.349566e-10 -22.14856 5.413221 14.9868 8.759012
2.232229 101.9573 20.32208 -1.443954 3.640554 3.048474 6.132505 -29.19607 5.987482 -2.400628e-09 19.48377 2.661704e-09 -8.499788 -7.833944 -2.604252 -4.662332 15.48073 -18.27219 2.458608e-09 11.69366 -2.068416e-09 1.980816 -17.78582 16.23015 -1.887954 -2.210525 2.818464 3.576734 8.185699 -9.077162 0.9733034 20.42032 7.511291 3.964591 -26.47807 8.782462 5.916806 -17.48271 10.98804 89.14033 37.03251 -23.47958 2.670206e-10 -1.182789e-09 11.43175 -8.794794 10.40003 6.330516 5.864511 -20.88022 -2.076821 -91.26715 27.87201 18.3885 6.62266e-10 -8.787031e-10 -21.69594 5.311183 14.47942 9.048428
